<svg xmlns="http://www.w3.org/2000/svg" xmlns:xlink="http://www.w3.org/1999/xlink" contentStyleType="text/css" height="349px" preserveAspectRatio="none" style="width:693px;height:349px;background:#FFFFFF;" version="1.1" viewBox="0 0 693 349" width="693px" zoomAndPan="magnify"><defs/><g><!--class Reserva--><g id="elem_Reserva"><rect codeLine="1" fill="#F1F1F1" height="129.4844" id="Reserva" rx="2.5" ry="2.5" style="stroke:#181818;stroke-width:0.5;" width="679.4883" x="7" y="213"/><ellipse cx="314.0601" cy="229" fill="#ADD1B2" rx="11" ry="11" style="stroke:#181818;stroke-width:1.0;"/><path d="M317.0288,234.6406 Q316.4507,234.9375 315.8101,235.0781 Q315.1694,235.2344 314.4663,235.2344 Q311.9663,235.2344 310.6382,233.5938 Q309.3257,231.9375 309.3257,228.8125 Q309.3257,225.6875 310.6382,224.0313 Q311.9663,222.375 314.4663,222.375 Q315.1694,222.375 315.8101,222.5313 Q316.4663,222.6875 317.0288,222.9844 L317.0288,225.7031 Q316.4038,225.125 315.8101,224.8594 Q315.2163,224.5781 314.5913,224.5781 Q313.2476,224.5781 312.5601,225.6563 Q311.8726,226.7188 311.8726,228.8125 Q311.8726,230.9063 312.5601,231.9844 Q313.2476,233.0469 314.5913,233.0469 Q315.2163,233.0469 315.8101,232.7813 Q316.4038,232.5 317.0288,231.9219 L317.0288,234.6406 Z " fill="#000000"/><text fill="#000000" font-family="sans-serif" font-size="14" lengthAdjust="spacing" textLength="56.8682" x="334.5601" y="233.8467">Reserva</text><line style="stroke:#181818;stroke-width:0.5;" x1="8" x2="685.4883" y1="245" y2="245"/><rect fill="none" height="6" style="stroke:#C82930;stroke-width:1.0;" width="6" x="15" y="255.6484"/><text fill="#000000" font-family="sans-serif" font-size="14" lengthAdjust="spacing" textLength="166.4072" x="27" y="261.9951">numeroQuarto: number</text><rect fill="none" height="6" style="stroke:#C82930;stroke-width:1.0;" width="6" x="15" y="271.9453"/><text fill="#000000" font-family="sans-serif" font-size="14" lengthAdjust="spacing" textLength="150.4316" x="27" y="278.292">nomeHospede: string</text><rect fill="none" height="6" style="stroke:#C82930;stroke-width:1.0;" width="6" x="15" y="288.2422"/><text fill="#000000" font-family="sans-serif" font-size="14" lengthAdjust="spacing" textLength="129.1719" x="27" y="294.5889">dataEntrada: Date</text><rect fill="none" height="6" style="stroke:#C82930;stroke-width:1.0;" width="6" x="15" y="304.5391"/><text fill="#000000" font-family="sans-serif" font-size="14" lengthAdjust="spacing" textLength="112.9844" x="27" y="310.8857">dataSaida: Date</text><line style="stroke:#181818;stroke-width:0.5;" x1="8" x2="685.4883" y1="318.1875" y2="318.1875"/><ellipse cx="18" cy="331.8359" fill="#84BE84" rx="3" ry="3" style="stroke:#038048;stroke-width:1.0;"/><text fill="#000000" font-family="sans-serif" font-size="14" lengthAdjust="spacing" textLength="653.4883" x="27" y="335.1826">Reserva(numeroQuarto: number, nomeHospede: string, dataEntrada: Date, dataSaida: Date)</text></g><!--class Hotel--><g id="elem_Hotel"><rect codeLine="9" fill="#F1F1F1" height="129.4844" id="Hotel" rx="2.5" ry="2.5" style="stroke:#181818;stroke-width:0.5;" width="410.5967" x="141" y="7"/><ellipse cx="323.5059" cy="23" fill="#ADD1B2" rx="11" ry="11" style="stroke:#181818;stroke-width:1.0;"/><path d="M326.4746,28.6406 Q325.8965,28.9375 325.2559,29.0781 Q324.6152,29.2344 323.9121,29.2344 Q321.4121,29.2344 320.084,27.5938 Q318.7715,25.9375 318.7715,22.8125 Q318.7715,19.6875 320.084,18.0313 Q321.4121,16.375 323.9121,16.375 Q324.6152,16.375 325.2559,16.5313 Q325.9121,16.6875 326.4746,16.9844 L326.4746,19.7031 Q325.8496,19.125 325.2559,18.8594 Q324.6621,18.5781 324.0371,18.5781 Q322.6934,18.5781 322.0059,19.6563 Q321.3184,20.7188 321.3184,22.8125 Q321.3184,24.9063 322.0059,25.9844 Q322.6934,27.0469 324.0371,27.0469 Q324.6621,27.0469 325.2559,26.7813 Q325.8496,26.5 326.4746,25.9219 L326.4746,28.6406 Z " fill="#000000"/><text fill="#000000" font-family="sans-serif" font-size="14" lengthAdjust="spacing" textLength="37.085" x="344.0059" y="27.8467">Hotel</text><line style="stroke:#181818;stroke-width:0.5;" x1="142" x2="550.5967" y1="39" y2="39"/><rect fill="none" height="6" style="stroke:#C82930;stroke-width:1.0;" width="6" x="149" y="49.6484"/><text fill="#000000" font-family="sans-serif" font-size="14" lengthAdjust="spacing" textLength="137.1494" x="161" y="55.9951">reservas: Reserva[]</text><line style="stroke:#181818;stroke-width:0.5;" x1="142" x2="550.5967" y1="63.2969" y2="63.2969"/><ellipse cx="152" cy="76.9453" fill="#84BE84" rx="3" ry="3" style="stroke:#038048;stroke-width:1.0;"/><text fill="#000000" font-family="sans-serif" font-size="14" lengthAdjust="spacing" textLength="48.0088" x="161" y="80.292">Hotel()</text><ellipse cx="152" cy="93.2422" fill="#84BE84" rx="3" ry="3" style="stroke:#038048;stroke-width:1.0;"/><text fill="#000000" font-family="sans-serif" font-size="14" lengthAdjust="spacing" textLength="285.5371" x="161" y="96.5889">registrarReserva(reserva: Reserva): void</text><ellipse cx="152" cy="109.5391" fill="#84BE84" rx="3" ry="3" style="stroke:#038048;stroke-width:1.0;"/><text fill="#000000" font-family="sans-serif" font-size="14" lengthAdjust="spacing" textLength="332.6777" x="161" y="112.8857">cancelarReserva(numeroQuarto: number): void</text><ellipse cx="152" cy="125.8359" fill="#84BE84" rx="3" ry="3" style="stroke:#038048;stroke-width:1.0;"/><text fill="#000000" font-family="sans-serif" font-size="14" lengthAdjust="spacing" textLength="384.5967" x="161" y="129.1826">consultarStatusQuarto(numeroQuarto: number): string</text></g><!--link Hotel to Reserva--><g id="link_Hotel_Reserva"><path codeLine="17" d="M346.5,136.21 C346.5,160.64 346.5,182.5 346.5,206.92 " fill="none" id="Hotel-to-Reserva" style="stroke:#181818;stroke-width:1.0;"/><polygon fill="#181818" points="346.5,212.92,350.5,203.92,346.5,207.92,342.5,203.92,346.5,212.92" style="stroke:#181818;stroke-width:1.0;"/><text fill="#000000" font-family="sans-serif" font-size="13" lengthAdjust="spacing" textLength="49.0991" x="347.5" y="179.0669">cont&#233;m</text></g><!--SRC=[TP513e8m44NtdA9n1H4kq8KhJTWgI-DYB1D2Kbep7TWO3-Gvl9W8BIfYTpFpVz_yLcbmJXpG8NKWhf7eJoPCso3PVGl4LhwgCr8OsGPpwovOeXIEgJQLdvJ0i3DCK88KMs3yw1TGVtNN0HaleT8bIleBIETt9z4jYjGGARUCUWf48yt9m3sU_1w3BavyHLZLFGuehEUDao-HehDrwUKAZ4BzLY-5cJciSQrce8A1MpTA__dyy_QPnZHPjfc-IefLVnS_xitg2G00]--></g></svg>